<?xml version="1.0" encoding="utf-8"?>
<!-- Generator: Adobe Illustrator 25.0.1, SVG Export Plug-In . SVG Version: 6.00 Build 0)  -->
<svg version="1.1" id="Layer_1" xmlns="http://www.w3.org/2000/svg" xmlns:xlink="http://www.w3.org/1999/xlink" x="0px" y="0px"
	 viewBox="0 0 130 80" style="enable-background:new 0 0 130 80;" xml:space="preserve">
<style type="text/css">
	.st0{clip-path:url(#SVGID_2_);}
	.st1{fill:#4AA7A5;}
</style>
<g>
	<g>
		<defs>
			<rect id="SVGID_1_" x="26.2" y="441.7" width="102.8" height="21.8"/>
		</defs>
		<clipPath id="SVGID_2_">
			<use xlink:href="#SVGID_1_"  style="overflow:visible;"/>
		</clipPath>
		<g transform="matrix(1 0 0 1 0 -3.051758e-05)" class="st0">
			
				<image style="overflow:visible;enable-background:new    ;" width="240" height="54" xlink:href="34811AD8.png"  transform="matrix(0.4275 0 0 0.4177 26.2993 441.3081)">
			</image>
		</g>
	</g>
</g>
<g>
	<g>
		<g>
			<path class="st1" d="M46.2,41.2l-2.2-0.9c-1.5-0.6-2.7-1.1-2.5-1.7c0.1-0.3,0.8-0.6,2.9-0.6c3.3,0,6.5,0.7,6.5,0.7l0.3-3
				c0,0-3-0.7-6.7-0.7c-1.7,0-2.8,0-4,0.2c-1.9,0.3-5.2,1.1-5.3,3.8c-0.2,2.8,3.1,4,5.1,4.8l1.7,0.7c1.9,0.8,2.8,1,2.8,1.6
				c0,0.6-1.4,0.7-3.1,0.7c-3.2-0.1-6.5-0.7-6.5-0.7L35,49.3c0,0,2.4,0.4,7.3,0.5c0.3,0,0.6,0,0.9,0c3.5,0,7.8-0.5,8.3-3.5
				C51.8,43.6,49,42.4,46.2,41.2"/>
			<path class="st1" d="M70.9,43.7c1.2-6.9-4.9-8.2-6.3-8.4c-0.5-0.1-1.1-0.1-1.7-0.1c-6.4-0.1-9.6,4-9.9,7.3
				c-0.2,3,0.9,7.5,10.3,7.5c3.5,0,5.7-0.5,6.6-0.8c0.1-0.6,0.3-1.9,0.5-2.9c-0.5,0.1-3.3,0.7-6.4,0.7c-0.1,0-0.2,0-0.3,0
				c-4.3-0.1-5.1-2.2-5.1-3.2c0,0,0,0,0,0H70.9z M58.8,41c0.3-1.5,1.4-3,3.9-3c3.6,0,3.4,3,3.4,3H58.8z"/>
			<path class="st1" d="M127.8,43.7c1.2-6.9-4.9-8.2-6.3-8.4c-0.5-0.1-1.1-0.1-1.7-0.1c-6.4-0.1-9.6,4-9.9,7.3
				c-0.2,3,0.9,7.5,10.3,7.5c3.5,0,5.7-0.5,6.6-0.8c0.1-0.6,0.3-1.9,0.5-2.9c-0.5,0.1-3.3,0.7-6.4,0.7c-0.1,0-0.2,0-0.3,0
				c-4.3-0.1-5.1-2.2-5.1-3.2c0,0,0,0,0,0H127.8z M115.8,41c0.3-1.5,1.4-3,3.9-3c3.6,0,3.4,3,3.4,3H115.8z"/>
			<path class="st1" d="M84.6,40.3c-0.2,2.5-0.6,9.4-0.6,9.4h5.6l0.6-9.5c0.3-4.3-2.8-4.6-4.8-4.9c-0.1,0-1.2-0.1-2.7-0.1
				c-0.4,0-0.8,0-1.2,0c-3.5,0.1-8,0.6-8,0.6l-0.9,13.8h5.7l0.7-11.2c0,0,2-0.3,3.6-0.2C83.2,38.3,84.8,38.2,84.6,40.3"/>
			<path class="st1" d="M32.3,30h-4.7l-0.3,3.7h6c0,0,0.2-2.1,0.2-2.5C33.6,30.5,33.3,30,32.3,30"/>
			<path class="st1" d="M103.3,41.2l-2.2-0.9c-1.5-0.6-2.7-1.1-2.5-1.7c0.1-0.3,0.8-0.6,2.9-0.6c3.3,0,6.5,0.7,6.5,0.7l0.3-3
				c0,0-3-0.7-6.7-0.7c-1.6,0-2.8,0-4,0.2c-1.9,0.3-5.2,1.1-5.4,3.8c-0.2,2.8,3.1,4,5.1,4.8l1.7,0.7c1.9,0.8,2.8,1,2.8,1.6
				c0,0.6-1.4,0.7-3.1,0.7c-3.2-0.1-6.5-0.7-6.5-0.7L92,49.3c0,0,2.4,0.4,7.3,0.5c0.3,0,0.6,0,0.9,0c3.5,0,7.8-0.5,8.3-3.5
				C108.8,43.6,106,42.4,103.3,41.2"/>
			<path class="st1" d="M18.6,30L18,36.9H9.2l0.4-5.6c0-1.2-1-1.3-1.5-1.3H3.5L2,49.7h6.2L8.9,41h8.8L17,49.7h6.2L24.7,30H18.6z"/>
			<polygon class="st1" points="27.2,35.4 26.1,49.7 32.1,49.7 33.2,35.4 			"/>
		</g>
	</g>
</g>
</svg>
