<?xml version="1.0" encoding="utf-8"?>
<!-- Generator: Adobe Illustrator 25.0.1, SVG Export Plug-In . SVG Version: 6.00 Build 0)  -->
<svg version="1.1" id="Layer_1" xmlns="http://www.w3.org/2000/svg" xmlns:xlink="http://www.w3.org/1999/xlink" x="0px" y="0px"
	 viewBox="0 0 190 193" style="enable-background:new 0 0 190 193;" xml:space="preserve">
<style type="text/css">
	.st0{fill:#FFFFFF;}
</style>
<path class="st0" d="M28.5,144.9l0.9,1.5l-14.2,3.3l-0.9-1.4l8.9-11.7l0.9,1.4l-7.6,9.7l0.1,0.1L28.5,144.9z M23.6,147.3l-3.7-5.8
	l1.2-0.8l3.7,5.8L23.6,147.3z"/>
<path class="st0" d="M22.3,134.4l-11.1,9l-0.6-1.5l9.1-7.2l-0.1-0.1l-11.3,1.9l-0.7-1.7l9.1-7.2l-0.1-0.1l-11.3,2l-0.6-1.5l14-2.2
	l0.7,1.6l-8.8,7.2l0,0.1l11.1-1.7L22.3,134.4z"/>
<path class="st0" d="M17.5,121.9l0.4,1.7l-14.4-1.3l-0.4-1.6l12-8.4l0.4,1.7l-10.1,7l0,0.1L17.5,121.9z M12.2,122.6l-1.7-6.7
	l1.4-0.4l1.7,6.7L12.2,122.6z"/>
<path class="st0" d="M14.9,109.9l-13.5,1.5l-0.4-4.6c-0.1-1.1,0-2,0.3-2.7c0.3-0.7,0.7-1.3,1.3-1.7c0.6-0.4,1.3-0.6,2.1-0.7
	c0.8-0.1,1.5,0,2.2,0.3c0.6,0.3,1.2,0.7,1.6,1.3c0.4,0.6,0.7,1.5,0.7,2.5l0.3,3.7L8,109.8l-0.3-3.7c-0.1-0.7-0.2-1.3-0.5-1.7
	c-0.2-0.4-0.6-0.7-1-0.9c-0.4-0.2-0.9-0.2-1.4-0.2c-0.5,0.1-1,0.2-1.4,0.5c-0.4,0.2-0.7,0.6-0.9,1.1c-0.2,0.5-0.2,1.1-0.2,1.8
	l0.2,2.9l12.1-1.3L14.9,109.9z M8.2,104.2l5.8-4l0.2,1.9l-5.8,4L8.2,104.2z"/>
<path class="st0" d="M14.4,93.6L14,97.8L0.5,97.1l0.3-4.4c0.1-1.3,0.4-2.4,1.1-3.4c0.6-0.9,1.4-1.6,2.5-2.1c1-0.5,2.3-0.6,3.7-0.6
	c1.4,0.1,2.6,0.4,3.6,0.9c1,0.6,1.7,1.3,2.2,2.3C14.3,91,14.4,92.2,14.4,93.6z M12.7,96l0.2-2.5c0.1-1.1-0.1-2.1-0.4-2.8
	c-0.4-0.8-1-1.3-1.7-1.7c-0.8-0.4-1.7-0.6-2.8-0.7c-1.1-0.1-2.1,0.1-2.9,0.4c-0.8,0.3-1.5,0.8-1.9,1.5c-0.5,0.7-0.8,1.6-0.8,2.6
	l-0.2,2.6L12.7,96z"/>
<path class="st0" d="M18.6,71.5l-14-1.4l0.6-1.6l11.3,1.3l0.1-0.1L7.5,63l0.7-1.7l11.3,1.2l0.1-0.1l-9.2-6.6l0.6-1.6l11.2,8.3
	l-0.6,1.6l-11.2-1l0,0.1l8.9,6.7L18.6,71.5z"/>
<path class="st0" d="M14.8,48.2L26.4,55l-0.9,1.4L14,49.7L14.8,48.2z"/>
<path class="st0" d="M26.7,31.8l10.4,8.6l-1,1.2l-12.9-0.9l-0.1,0.1l8.2,6.7l-1.1,1.3l-10.4-8.6l1-1.2l13,0.9l0.1-0.1l-8.2-6.7
	L26.7,31.8z"/>
<path class="st0" d="M38.1,21.5L47,31.7l-1.2,1.1l-12.6-2.9l-0.1,0.1l7,7.9l-1.2,1.1L30,28.8l1.2-1.1l12.6,2.9l0.1-0.1l-7-8
	L38.1,21.5z"/>
<path class="st0" d="M46.5,15.8l7.2,11.4l-1.4,0.9l-7.2-11.4L46.5,15.8z"/>
<path class="st0" d="M64.5,6.6l5.3,12.5l-1.5,0.7l-11-6.7l-0.1,0.1l4.1,9.8l-1.5,0.7l-5.3-12.5l1.5-0.7l11,6.7l0.1-0.1L63,7.3
	L64.5,6.6z"/>
<path class="st0" d="M78.7,6.9c-0.2-0.4-0.5-0.7-0.8-1c-0.3-0.3-0.7-0.5-1-0.7C76.4,5,76,5,75.6,4.9c-0.4,0-0.9,0-1.4,0.2
	c-0.8,0.2-1.4,0.6-2,1.2c-0.5,0.6-0.9,1.3-1.1,2.2s-0.1,1.9,0.1,3c0.3,1.1,0.7,2.1,1.3,2.7c0.6,0.7,1.2,1.1,2,1.4
	c0.8,0.2,1.5,0.2,2.4,0c0.8-0.2,1.4-0.5,1.9-1c0.5-0.5,0.8-1.1,1-1.7c0.2-0.7,0.2-1.4,0-2.2l0.5,0l-4,1.1L76,10.3l5-1.4l0.3,1.4
	c0.3,1.1,0.3,2.1,0,3c-0.3,0.9-0.7,1.7-1.4,2.4c-0.7,0.7-1.6,1.1-2.6,1.4c-1.2,0.3-2.3,0.3-3.3,0c-1-0.3-1.9-0.9-2.6-1.8
	c-0.7-0.9-1.3-2-1.6-3.4c-0.3-1-0.3-2-0.3-2.9c0.1-0.9,0.3-1.7,0.7-2.5c0.4-0.7,0.9-1.3,1.5-1.8c0.6-0.5,1.4-0.9,2.2-1.1
	c0.7-0.2,1.4-0.3,2-0.2c0.7,0,1.3,0.2,1.8,0.4c0.6,0.2,1.1,0.6,1.5,1c0.4,0.4,0.8,1,1.1,1.6L78.7,6.9z"/>
<path class="st0" d="M98.6,14.1l-1.7-0.1l6-13.4l1.7,0.1l4,13.9l-1.7-0.1l-3.2-11.7l-0.1,0L98.6,14.1z M99.6,8.8l6.9,0.3l-0.1,1.5
	l-6.9-0.3L99.6,8.8z"/>
<path class="st0" d="M121.4,7.7c0-0.5-0.1-0.9-0.3-1.3c-0.1-0.4-0.4-0.8-0.6-1.1c-0.3-0.3-0.6-0.6-0.9-0.8c-0.4-0.2-0.8-0.4-1.3-0.5
	c-0.8-0.2-1.5-0.1-2.3,0.2c-0.7,0.3-1.4,0.8-2,1.5c-0.6,0.7-1,1.7-1.2,2.8c-0.3,1.2-0.3,2.2-0.1,3.1c0.2,0.9,0.6,1.6,1.1,2.1
	c0.6,0.5,1.2,0.9,2.1,1.1c0.8,0.2,1.5,0.1,2.1-0.1c0.7-0.2,1.2-0.6,1.7-1.1c0.5-0.5,0.8-1.2,1-2l0.5,0.2l-4-0.8l0.3-1.4l5,1.1
	l-0.3,1.4c-0.3,1.1-0.7,2-1.4,2.7c-0.6,0.7-1.4,1.2-2.4,1.5c-0.9,0.3-1.9,0.3-2.9,0.1c-1.2-0.2-2.1-0.7-2.9-1.5
	c-0.8-0.7-1.3-1.7-1.5-2.8c-0.3-1.1-0.2-2.4,0.1-3.8c0.2-1.1,0.6-2,1.1-2.8c0.5-0.8,1-1.4,1.7-1.9s1.4-0.8,2.2-1
	c0.8-0.2,1.6-0.2,2.4,0c0.7,0.1,1.3,0.4,1.9,0.7c0.6,0.3,1,0.7,1.4,1.2c0.4,0.5,0.7,1,0.9,1.6c0.2,0.6,0.3,1.2,0.3,1.9L121.4,7.7z"
	/>
<path class="st0" d="M123.6,18.2l5.1-12.8l7.6,2.9l-0.6,1.4l-6.1-2.3l-1.7,4.3l5.7,2.2l-0.6,1.4l-5.7-2.2l-1.7,4.3l6.2,2.4l-0.6,1.4
	L123.6,18.2z"/>
<path class="st0" d="M150.8,16.2l-7,11.9l-1.4-0.8l-0.8-13l-0.1-0.1l-5.5,9.3l-1.4-0.8l7-11.9l1.4,0.8l0.8,13l0.1,0.1l5.5-9.3
	L150.8,16.2z"/>
<path class="st0" d="M159.8,28.4l-1.3-1c0.2-0.4,0.4-0.9,0.4-1.3c0-0.4,0-0.9-0.1-1.3c-0.1-0.4-0.3-0.8-0.5-1.2
	c-0.2-0.4-0.5-0.7-0.9-1c-0.6-0.5-1.3-0.8-2.1-0.9c-0.8-0.1-1.6,0.1-2.4,0.4c-0.8,0.4-1.6,1-2.4,2c-0.8,0.9-1.3,1.8-1.5,2.7
	c-0.2,0.9-0.2,1.7,0,2.4c0.2,0.7,0.7,1.4,1.3,1.9c0.3,0.3,0.7,0.5,1.1,0.7c0.4,0.2,0.8,0.3,1.2,0.3c0.4,0,0.8,0,1.3-0.2
	c0.4-0.1,0.8-0.3,1.2-0.7l1.3,1c-0.5,0.5-1.1,0.8-1.7,1c-0.6,0.2-1.2,0.3-1.8,0.3c-0.6,0-1.2-0.1-1.8-0.4c-0.6-0.2-1.1-0.6-1.7-1
	c-0.9-0.7-1.5-1.6-1.8-2.6c-0.3-1-0.3-2.1-0.1-3.2c0.3-1.1,0.9-2.3,1.8-3.4c0.9-1.1,1.9-1.9,3-2.4c1.1-0.5,2.1-0.7,3.2-0.6
	c1.1,0.1,2,0.6,2.9,1.3c0.5,0.4,1,0.9,1.3,1.4c0.3,0.5,0.6,1.1,0.7,1.7c0.1,0.6,0.1,1.2,0,1.9C160.4,27.2,160.2,27.8,159.8,28.4z"/>
<path class="st0" d="M164.9,27.8l1.2,1.4l-2.3,7.1l0.1,0.1l7.3-1.5l1.2,1.4l-9.3,1.7l-4.2,3.8l-1.1-1.2l4.2-3.8L164.9,27.8z"/>
<path class="st0" d="M183,76.2l-1.4,0.4l-1.4-5.8l1.4-0.4L183,76.2z"/>
<path class="st0" d="M185.4,118.7c0.7,0.1,1.3-0.2,1.7-0.6c0.5-0.5,0.8-1.1,1-1.9c0.1-0.6,0.2-1.1,0.1-1.6c-0.1-0.5-0.3-0.9-0.5-1.2
	c-0.3-0.3-0.6-0.5-1-0.6c-0.4-0.1-0.7-0.1-1,0.1c-0.3,0.1-0.6,0.3-0.8,0.5c-0.2,0.2-0.4,0.5-0.6,0.8c-0.2,0.3-0.3,0.5-0.4,0.8
	l-0.7,1.3c-0.2,0.3-0.4,0.7-0.6,1.1c-0.3,0.4-0.6,0.8-0.9,1.1c-0.4,0.3-0.8,0.6-1.3,0.8c-0.5,0.2-1,0.2-1.7,0.1
	c-0.7-0.2-1.3-0.5-1.8-1c-0.5-0.5-0.8-1.1-1-1.9c-0.2-0.8-0.1-1.7,0.1-2.7c0.2-1,0.6-1.8,1-2.4c0.5-0.6,1-1.1,1.7-1.4
	c0.6-0.3,1.3-0.4,2.1-0.3l-0.4,1.7c-0.5-0.1-1,0-1.4,0.2c-0.4,0.2-0.7,0.6-1,1c-0.3,0.4-0.5,0.9-0.6,1.4c-0.1,0.6-0.2,1.2-0.1,1.7
	c0.1,0.5,0.3,1,0.6,1.3c0.3,0.4,0.7,0.6,1.2,0.7c0.4,0.1,0.8,0,1.2-0.1c0.3-0.2,0.6-0.5,0.9-0.8c0.3-0.4,0.5-0.8,0.8-1.2l0.8-1.5
	c0.5-1,1.2-1.7,1.8-2.2c0.7-0.5,1.5-0.6,2.4-0.5c0.7,0.2,1.3,0.5,1.8,1c0.5,0.5,0.8,1.2,0.9,1.9c0.2,0.8,0.1,1.6-0.1,2.4
	c-0.2,0.9-0.5,1.6-1,2.2c-0.5,0.6-1,1-1.6,1.3c-0.6,0.3-1.3,0.4-1.9,0.2L185.4,118.7z"/>
<path class="st0" d="M184.6,131.6l-12.6-4.8l0.6-1.5l12.6,4.8L184.6,131.6z"/>
<path class="st0" d="M175.1,149.5l-11.6-6.8l0.8-1.4l13-1.1l0.1-0.1l-9.1-5.3l0.9-1.4l11.6,6.8l-0.8,1.4l-13,1.1l-0.1,0.1l9.2,5.3
	L175.1,149.5z"/>
<path class="st0" d="M162.7,158.7l1.1-1.3c0.4,0.2,0.9,0.4,1.3,0.4c0.4,0,0.8,0,1.3-0.1c0.4-0.1,0.8-0.3,1.2-0.5s0.7-0.5,1-0.9
	c0.5-0.6,0.9-1.4,1-2.1c0.1-0.8,0-1.6-0.4-2.4c-0.4-0.8-1-1.6-1.9-2.3c-0.9-0.7-1.8-1.2-2.7-1.4c-0.9-0.2-1.7-0.2-2.4,0.1
	c-0.7,0.3-1.4,0.7-1.9,1.4c-0.3,0.4-0.5,0.7-0.7,1.1c-0.2,0.4-0.3,0.8-0.3,1.2c0,0.4,0,0.8,0.1,1.3c0.1,0.4,0.3,0.8,0.6,1.2
	l-1.1,1.3c-0.5-0.5-0.8-1.1-1-1.7c-0.2-0.6-0.3-1.2-0.3-1.8c0-0.6,0.2-1.2,0.4-1.8c0.2-0.6,0.6-1.2,1-1.7c0.7-0.9,1.6-1.5,2.6-1.9
	c1-0.4,2.1-0.4,3.2-0.1c1.1,0.3,2.2,0.8,3.3,1.7c1.1,0.9,1.9,1.9,2.3,2.9c0.5,1.1,0.6,2.1,0.5,3.2c-0.1,1.1-0.6,2-1.3,3
	c-0.4,0.5-0.9,1-1.5,1.3c-0.5,0.4-1.1,0.6-1.7,0.7c-0.6,0.1-1.2,0.2-1.9,0.1C163.9,159.3,163.3,159,162.7,158.7z"/>
<path class="st0" d="M152.9,155.1l8.9,10.1l-6.2,5.5l-1-1.1l5-4.4l-3-3.4L152,166l-1-1.1l4.6-4.1l-3-3.4l-5,4.5l-1-1.1L152.9,155.1z
	"/>
<path class="st0" d="M131.7,170.3l0.5,1.1l-2.2,6.4c-0.3,0.7-0.5,1.4-0.6,1.9c-0.1,0.5-0.2,1-0.2,1.4c0,0.4,0.1,0.8,0.2,1.2
	c0.2,0.4,0.5,0.8,0.8,1c0.3,0.2,0.7,0.3,1.2,0.4s0.9-0.1,1.3-0.3c0.5-0.2,0.9-0.5,1.1-0.9c0.3-0.4,0.4-0.8,0.5-1.2
	c0-0.4,0-0.9-0.2-1.4l1.4-0.6c0.3,0.7,0.4,1.4,0.3,2.1c-0.1,0.7-0.4,1.3-0.8,1.9c-0.5,0.6-1,1-1.8,1.3c-0.7,0.3-1.4,0.5-2.1,0.4
	c-0.7-0.1-1.3-0.3-1.9-0.6c-0.5-0.4-1-0.9-1.2-1.5c-0.2-0.5-0.3-0.9-0.3-1.5c0-0.5,0.1-1.1,0.2-1.8c0.2-0.7,0.5-1.6,0.9-2.7l1.5-4.2
	l0-0.1l-5.8,2.6l-0.6-1.3L131.7,170.3z"/>
<path class="st0" d="M115.4,176.2c1-0.3,1.9-0.2,2.7,0.1c0.8,0.3,1.5,1,2.1,1.9c0.6,0.9,1.1,2.1,1.4,3.5c0.4,1.4,0.5,2.7,0.4,3.8
	c-0.1,1.1-0.4,2-1,2.7c-0.6,0.7-1.3,1.2-2.3,1.5c-1,0.3-1.9,0.2-2.7-0.1c-0.8-0.3-1.5-1-2.1-1.9c-0.6-0.9-1.1-2.1-1.4-3.5
	c-0.4-1.4-0.5-2.7-0.4-3.8c0.1-1.1,0.4-2,1-2.7C113.7,176.9,114.5,176.5,115.4,176.2z M115.8,177.6c-1,0.3-1.6,0.9-1.9,2
	c-0.3,1.1-0.2,2.5,0.2,4.2c0.3,1.1,0.6,2.1,1.1,2.8c0.4,0.7,0.9,1.3,1.5,1.6c0.6,0.3,1.2,0.4,1.8,0.2c1-0.3,1.6-0.9,1.9-2
	c0.3-1.1,0.2-2.5-0.2-4.2c-0.3-1.1-0.6-2.1-1.1-2.8c-0.4-0.7-0.9-1.2-1.5-1.5C117,177.5,116.4,177.4,115.8,177.6z"/>
<path class="st0" d="M47.9,172.5l0.8-1.3l5.1,3l-0.8,1.3L47.9,172.5z"/>
<g>
	<path class="st0" d="M85.5,190.9c0.4,0,0.9,0,1.4-0.1c2.9-0.5,4.4-2.7,4.7-4.9l-0.1,0c-0.6,0.9-1.8,1.6-3.3,1.6
		c-2.4,0-4.2-1.7-4.2-4.4c0-2.5,1.7-4.9,4.5-4.9c2.9,0,4.9,2.2,4.9,5.8c0,2.7-0.9,4.8-2.3,6.2c-1.1,1.1-2.7,1.8-4.4,2.1
		c-0.5,0.1-1,0.1-1.4,0.1L85.5,190.9z M86,182.9c0,2,1.1,3.1,2.9,3.1c1.1,0,2.2-0.7,2.7-1.7c0.1-0.2,0.2-0.5,0.2-0.8
		c-0.1-2.3-1.1-3.9-3.1-3.9C87.1,179.6,86,181,86,182.9z"/>
</g>
<path class="st0" d="M102.7,178.3c1-0.1,1.9,0.1,2.6,0.5c0.7,0.5,1.4,1.2,1.8,2.2c0.5,1,0.7,2.2,0.9,3.7c0.1,1.5,0,2.7-0.3,3.8
	c-0.3,1.1-0.8,1.9-1.4,2.5c-0.7,0.6-1.5,1-2.5,1.1c-1,0.1-1.9-0.1-2.6-0.6c-0.8-0.5-1.4-1.2-1.8-2.2c-0.5-1-0.7-2.2-0.9-3.7
	c-0.1-1.5,0-2.7,0.3-3.8c0.3-1.1,0.8-1.9,1.4-2.5C100.8,178.8,101.7,178.4,102.7,178.3z M102.8,179.8c-1,0.1-1.7,0.7-2.2,1.7
	s-0.6,2.4-0.5,4.2c0.1,1.2,0.3,2.2,0.6,3c0.3,0.8,0.7,1.4,1.2,1.8c0.5,0.4,1.1,0.5,1.7,0.5c1-0.1,1.7-0.7,2.2-1.7
	c0.5-1,0.6-2.4,0.5-4.2c-0.1-1.2-0.3-2.2-0.6-2.9c-0.3-0.8-0.7-1.4-1.2-1.8C104,179.9,103.4,179.7,102.8,179.8z"/>
</svg>
