<?xml version="1.0" encoding="utf-8"?>
<!-- Generator: Adobe Illustrator 25.0.1, SVG Export Plug-In . SVG Version: 6.00 Build 0)  -->
<svg version="1.1" id="Layer_1" xmlns="http://www.w3.org/2000/svg" xmlns:xlink="http://www.w3.org/1999/xlink" x="0px" y="0px"
	 viewBox="0 0 100 100" style="enable-background:new 0 0 100 100;" xml:space="preserve">
<style type="text/css">
	.st0{fill:#5050A1;}
	.st1{fill:#744B9D;}
	.st2{fill:#934B9C;}
	.st3{fill:#D74A99;}
	.st4{fill:#ED3366;}
	.st5{fill:#ED314C;}
	.st6{fill:#EE4736;}
	.st7{fill:#F37C25;}
	.st8{fill:#F59C26;}
	.st9{fill:#F8BD25;}
	.st10{fill:#FBDE34;}
	.st11{fill:#64C4B9;}
	.st12{fill:#2DBFCD;}
	.st13{fill:#3996D2;}
	.st14{fill:#466FB5;}
</style>
<g>
	<path class="st0" d="M71.1,20.7c-17.6-1.2-26.9,10.6-26.9,10.6l0,0c5.7-1.5,10.9,0,14.1,1.3c3.3-0.8,7.9-1.2,14-0.2
		c15.2,2.3,19.9,15.2,19.9,15.2s2.6,7.2,5.1,10.6c0.5-2.7,0.7-5.4,0.7-8.2c0-7.3-1.7-14.3-4.6-20.5C93.1,29,88,21.9,71.1,20.7z"/>
	<path class="st1" d="M98,50c0-0.5,0-0.9,0-1.4c-3.5-4.9-10.6-13.5-21.2-17.9C65.5,26,57,29.1,53.3,31.1c4.6,0.9,7.9,3.1,7.9,3.1
		s3.4,1.9,5.6,6.1c4.8,3,12.8,9.5,16,21.4c3.4,12.7-1.2,22.3-4,26.7C90.5,79.6,98,65.7,98,50z"/>
	<path class="st2" d="M84,45.3c-7.4-8.2-17.2-10.7-23.3-11.4c0.3,0.2,0.5,0.3,0.5,0.3s7.1,4,7.7,13.4c2.5,2.5,3.5,4.8,3.5,4.8
		s7,12.9,0,29.3c-3.4,7.8-9.1,12.7-14.2,15.7c15.1-2.6,27.8-12.2,34.6-25.4C92.9,71,95.3,57.8,84,45.3z"/>
	<path class="st3" d="M66.8,40.3c1.7,3.2,2.8,7.7,1.4,13.8c0,0,0,0,0,0c1.2,4.1,0.7,8.2,0.7,8.2s-0.1,7.5-9.4,20.4
		c-5.8,8-17.9,11-26.2,12.2c5.2,2,10.9,3.1,16.9,3.1c11.2,0,21.5-3.9,29.7-10.3c3.5-8.4,5.9-19.2,1.9-29.5
		C77.8,48.4,71.9,43.1,66.8,40.3z"/>
	<path class="st4" d="M68.1,54.1c-1.6,6.8-5,8.9-8.3,8.3c1.3,4.1,1.8,10.4-2.8,18c-7.5,12.5-19.1,14-28.2,12.6
		C35.2,96.2,42.4,98,50,98c2.9,0,5.8-0.3,8.6-0.8c7.5-5.5,14.5-13.5,16-25c1.7-13-1.8-20.8-5.9-25.4C68.9,49,68.8,51.4,68.1,54.1z"
		/>
	<path class="st5" d="M68.4,52.9C68.4,52.9,68.4,52.9,68.4,52.9c-0.1,0.4-0.2,0.8-0.2,1.2c-1.9,8.1-6.4,9.6-10.2,7.7
		c-0.6,2.8-1.3,5.9-2.1,9.3c-4.7,18.7-22.2,17.6-22.2,17.6s-5.7,0.1-11.4,0.5c2.2,1.6,4.5,3,7,4.2c0,0,0,0,0,0
		C72.7,96.7,68.4,52.9,68.4,52.9z"/>
	<path class="st6" d="M60,62.4c-2.8-0.4-5.5-2.8-7.1-6c0,0-0.1,0.2-0.3,0.6c-0.7,4.6-1.5,8.2-1.5,8.2l-15,13H15.5l-4.8-0.6
		c5,7.1,11.9,12.8,20,16.4c7.1,0.1,15.1-1,20.5-5.3C62.9,79.3,60,62.4,60,62.4z"/>
	<path class="st7" d="M52.9,56.4c0,0-4.1,10-19.3,13.5C18.4,73.4,12.5,64,12.5,64s-5.8-4.3-9.6-4.8c1.6,8.1,5.2,15.5,10.3,21.5
		c0.4,0.3,13.6,8.9,28.6,0.8C57,73.4,52.9,56.4,52.9,56.4z"/>
	<path class="st8" d="M49.3,60.8c-6.2,5.9-13.6,5.6-19.9,3.6c-7-2.2-12.9-7.1-16.7-13.3c-2.8-4.6-6.8-10.1-9.8-10.3
		C2.3,43.8,2,46.9,2,50c0,3.8,0.5,7.6,1.3,11.1c0.5,1,8.6,16.9,27.6,14.2c19.5-2.7,22-18.9,22-18.9S51.8,58.8,49.3,60.8z"/>
	<path class="st9" d="M42.4,63.5C41.1,63.6,40,63.4,39,63c-16.4-0.8-25.3-24.8-25.3-24.8s0-9-4.8-13.2c-3.3,5.5-5.6,11.6-6.5,18.2
		c2.3,7.4,7.6,18.1,19.4,21.9c18.2,5.7,27.6-4.5,28.1-5C48.3,61.7,45.8,63.2,42.4,63.5z"/>
	<path class="st10" d="M18.4,52.3c10.5,11.7,21.8,11,21.8,11c0,0,0,0-0.1,0l0,0c-0.4-0.1-0.7-0.2-1-0.3c0,0,0,0,0,0
		c-0.6-0.2-1.2-0.5-1.7-0.8C21.9,54,23,33.5,20.5,24.4c-0.5-1.9,0.5-3.9,1.2-5.8c0.8-2.1,1.7-5.3,1.1-8.1c-0.8,0.5-1.5,1.1-2.2,1.6
		c-0.1,0.1-0.2,0.1-0.3,0.2c-0.7,0.5-1.4,1.1-2,1.7c0,0-0.1,0.1-0.1,0.1c-1.4,1.3-2.8,2.6-4.1,4.1c0,0,0,0,0,0
		c-0.6,0.7-1.2,1.4-1.8,2.1c-0.1,0.1-0.1,0.1-0.2,0.2c-1.8,2.3-3.3,4.7-4.7,7.2c0,0,0,0,0,0C7.5,28,8,40.8,18.4,52.3z"/>
	<path class="st11" d="M18.1,39.4C23.7,57,37.9,62.6,37.9,62.6s0,0,0,0c-4-2.1-6.1-7.2-6.7-10.3c-0.1-0.7-0.3-1.7-0.3-3.1
		c-8.5-15.9,1.5-30.9,1.5-30.9s7.3-8.8,5.2-14.8c-8,2.1-15.1,6.2-20.9,11.8C15.7,22,15.3,30.7,18.1,39.4z"/>
	<path class="st11" d="M18.1,39.4C23.7,57,37.9,62.6,37.9,62.6s0,0,0,0c-4-2.1-6.1-7.2-6.7-10.3c-0.1-0.7-0.3-1.7-0.3-3.1
		c-8.5-15.9,1.5-30.9,1.5-30.9s7.3-8.8,5.2-14.8c-8,2.1-15.1,6.2-20.9,11.8C15.7,22,15.3,30.7,18.1,39.4z"/>
	<path class="st12" d="M32.7,5.2c-3.4,4.2-7.7,11.6-8.4,22.5c-1.2,18.7,7.8,27.4,7.8,27.4l0,0c-0.4-1-0.6-2-0.8-2.8
		c-0.3-1.4-0.7-4.7,0.2-8.4l0,0c-1-3.7,1-24.4,19.7-32.6C58.2,8.3,62,5.9,63.9,4c-4.4-1.3-9-2-13.9-2C43.9,2,38,3.2,32.7,5.2z"/>
	<path class="st13" d="M59.7,3C59.7,3,59.7,3,59.7,3c0,0-7.4-1-19.1,9.6C29.1,22.9,31,45.3,31.1,45.9c0.6-4.2,2.7-9.4,9-12.9
		c0.3-0.1,0.5-0.3,0.8-0.4l0,0C50.4,14,72.2,18.4,72.2,18.4s8.6,0.5,12.2-1.8C77.9,9.8,69.3,5,59.7,3z"/>
	<path class="st14" d="M44.2,31.3L44.2,31.3c0,0,9.4-11.8,26.9-10.6c16,1.1,21.4,7.5,22.2,8.6c-3.4-7.1-8.4-13.2-14.6-17.8
		c-4.5-1.3-9.8-1.7-15.8-0.1c-22.2,5.9-27.1,24.9-27.1,24.9s0,0,0,0c1.2-1.2,2.6-2.3,4.3-3.2C41.4,32.2,42.8,31.7,44.2,31.3
		C44.2,31.3,44.2,31.3,44.2,31.3z"/>
</g>
</svg>
